<?xml version="1.0" encoding="utf-8"?>
<!-- Generator: Adobe Illustrator 21.0.0, SVG Export Plug-In . SVG Version: 6.00 Build 0)  -->
<svg version="1.1" id="Слой_1" xmlns="http://www.w3.org/2000/svg" xmlns:xlink="http://www.w3.org/1999/xlink" x="0px" y="0px"
	 viewBox="0 0 600 600" style="enable-background:new 0 0 600 600;" xml:space="preserve">
<style type="text/css">
	.st0{fill:#ED1E79;}
</style>
<g>
	<g>
		<path class="st0" d="M138,234c-4.1-15.9,7.5-29.2,19.8-37.5c13.5-9.2,29-16.6,44.5-21.8c8.3-2.8,17-5.1,25.8-6.1
			c1.9-0.2,3.7-0.4,5.6-0.4c0.8,0,1.6,0,2.4,0c8.8-0.2-26.8-5.8-18.8-2.3c3.8,1.6,7.1,3.6,9.8,6.8c9.5,11.4,9.3,30.1,7.5,44
			c-4.4,33.9-25.1,62.7-47.6,87.3c-22,24-46.6,46.1-75.1,62.1c-34.5,19.4-73.6,27.9-112.2,34.7c-1.6,0.3,1.5,0.8,1.5,0.8
			c3.1,0.8,6.4,1.2,9.6,1.7c4.1,0.6,8.3,1.2,12.4,1.7c2.3,0.3,5.2,1,7.5,0.6c36.2-6.4,72.8-14,105.7-30.8
			c31.5-16,58.3-39.7,82.1-65.6c24.2-26.4,46.8-58,48.9-95c0.8-14.6-0.6-34.7-15-42.6c-3.3-1.8-6.9-2.7-10.5-3.5
			c-8.1-1.7-16.4-2.8-24.6-3.7c-9.4-1-18.3-1-27.6,0.8c-19.4,3.7-37.7,11.7-54.8,21.4c-15.3,8.7-34.1,23-29,43.2
			c0.5,1.8,14.2,2.7,16,3C123.1,232.7,137.9,233.7,138,234L138,234z"/>
	</g>
</g>
<g>
	<g>
		<path class="st0" d="M251,285.9c-6,27.1-17.8,52.4-34.2,74.7c5.8,9.1,11.7,18.3,17.5,27.4c10.4-21.6,24.1-41.5,40.8-58.8
			c7.5-7.8,15.9-15,25.6-19.9c4.6-2.3,9.6-4.2,14.8-5.1c4.9-0.9,11.8-1.8,16.1,1.1c-0.5-0.5-1-1.1-1.6-1.6c0.3,0.3,0.5,0.7,0.8,1
			c-5.3-8.4-10.5-16.8-15.8-25.1c0.8,3.1-1.9,6.3-3.4,8.7c-1.7,2.8-3.4,5.6-5.1,8.4c-3.5,5.9-7.1,11.8-10.6,17.7
			c-6.9,11.5-13.8,23.1-20.7,34.6c-1,1.6,6.2,11.3,6.9,12.3c2.9,4.7,5.9,11,10.1,14.7c9.9,8.6,24.3,1,34.2-3.6
			c14-6.5,27.2-14.4,39.6-23.4c1.5-1.1-17-27.8-17.5-27.4c-11.9,8.7-24.6,16.3-38,22.6c-9.2,4.4-25.3,13.4-34.8,5.1
			c5.7,9,11.3,18,17,27c9.1-15.2,18.2-30.4,27.3-45.6c2.2-3.7,4.4-7.3,6.6-11c1.9-3.2,5.7-7.5,6.1-11.3c0.4-4.3-4-9.4-6-12.7
			c-3.5-5.6-7-13.1-12-17.5c-4.4-3.9-13-2.2-18.2-1.2c-6.9,1.5-13.5,4.5-19.4,8.3c-12.5,8-22.8,19.2-32.1,30.7
			c-11.1,13.7-20.5,28.6-28.1,44.5c-0.3,0.7,2.1,4.4,2.1,4.3c1.9,3.3,3.9,6.6,6,9.8c0.7,1.1,9.5,13.1,9.5,13.2
			c16.4-22.4,28.1-47.7,34.2-74.7c0.2-0.9-1.9-4-2.1-4.3c-1.9-3.3-3.9-6.6-6-9.8c-2.1-3.2-4.2-6.4-6.4-9.6
			C253.7,289.1,250.9,286,251,285.9L251,285.9z"/>
	</g>
</g>
<g>
	<g>
		<path class="st0" d="M392.1,282.9c-13.3-0.1-24.5,19.8-14.2,29.9c4.9,4.8,11.9,7.5,17.8,11c6.4,3.8,12.9,8.2,16.8,14.7
			c3.3,5.4,4.8,12.3,2.1,18.3c-2.7,6-8.8,9.3-14.7,11.3c-16.2,5.4-34.4,5.1-51.3,5.4c-1.9,0,2,1,1.5,0.8c3,0.9,6.4,1.5,9.5,2.1
			c6.3,1.2,13.3,3.3,19.7,3.2c17.4-0.4,82.1,1.4,66.5-32.6c-6.4-14-22.3-17.9-33.7-26.4c-6.3-4.7-7.9-11.3-4.8-18.5
			c2.7-6.2,8.1-13.2,15.5-13.1c2,0-2.2-1.1-1.5-0.8c-3-0.9-6.4-1.5-9.5-2.1C405.5,284.8,398.7,282.9,392.1,282.9L392.1,282.9z"/>
	</g>
</g>
<g>
	<g>
		<path class="st0" d="M508.1,183.3c-13.9,66.9-27.7,133.8-41.6,200.6c-4,19.2-8,38.5-12,57.7c-0.2,0.9,1.9,4,2.1,4.3
			c1.9,3.3,4,6.6,6.1,9.8c2.1,3.2,4.2,6.4,6.5,9.5c0.3,0.5,3.1,3.5,3.1,3.7c13.9-66.9,27.7-133.8,41.6-200.6c4-19.2,8-38.5,12-57.7
			c0.2-0.9-1.9-4-2.1-4.3c-1.9-3.3-4-6.6-6.1-9.8c-2.1-3.2-4.2-6.4-6.5-9.5C510.9,186.5,508.1,183.5,508.1,183.3L508.1,183.3z"/>
	</g>
</g>
<g>
	<g>
		<path class="st0" d="M442.8,292.1c45.1-8.9,91-12.8,137-11.7c1.5,0,4.6-14,5-15.5c0.3-1.2,3.7-15.9,3.4-15.9
			c-46-1.1-91.9,2.8-137,11.7c-0.6,0.1-1.9,4.6-1.8,4.4c-1.2,3.6-2.2,7.3-3.2,11c-1,3.7-2,7.4-2.8,11.2
			C443.4,287.8,442.7,292.2,442.8,292.1L442.8,292.1z"/>
	</g>
</g>
<g>
	<g>
		<path class="st0" d="M286.4,81.6c-2.5-0.7-4.8-0.4-7.4-0.1c-6.9,0.9-13.8,2.2-20.6,3.7c-6.3,1.3-11.5,2.5-15.4,8
			c-7.1,10.2-10,24.4-11,36.5c0,0.2,14.9-2.1,16.1-2.3c1.5-0.3,15.7-2.1,15.8-3.6c0.6-8.3,2.3-16.4,5.2-24.2
			c2.4-6.4,5.5-15.6,12.8-17.9c-9.7,1.9-19.4,3.7-29.2,5.6c0.6,0.1,1.1,0.3,1.7,0.4c1.2,0.4,3.8-0.3,4.8-0.4
			c3.8-0.5,7.6-1.2,11.3-1.9c3.8-0.7,7.5-1.4,11.3-2.3C282.7,82.7,285.7,81.4,286.4,81.6L286.4,81.6z"/>
	</g>
</g>
</svg>
